<?xml version="1.0" encoding="UTF-8" standalone="no"?><!DOCTYPE svg PUBLIC "-//W3C//DTD SVG 1.1//EN" "http://www.w3.org/Graphics/SVG/1.1/DTD/svg11.dtd"><svg width="100%" height="100%" viewBox="0 0 2334 2334" version="1.1" xmlns="http://www.w3.org/2000/svg" xmlns:xlink="http://www.w3.org/1999/xlink" xml:space="preserve" xmlns:serif="http://www.serif.com/" style="fill-rule:evenodd;clip-rule:evenodd;stroke-linejoin:round;stroke-miterlimit:2;"><g id="prefix__g85"><path id="prefix__path9" d="M1166.667,4.167c641.667,0 1162.5,520.833 1162.5,1162.5c0,641.667 -520.833,1162.5 -1162.5,1162.5c-641.667,0 -1162.5,-520.833 -1162.5,-1162.5c-0,-641.667 520.833,-1162.5 1162.5,-1162.5Z" style="fill:#ccd3f6;"/><path id="prefix__path11" d="M1687.5,691.667l491.667,629.167c12.5,483.333 -620.833,1050 -1216.667,825l-316.667,-412.5l475,-650c0,0 575,-395.833 566.667,-391.667Z" style="fill:#332c2b;fill-opacity:0.15;"/><path id="prefix__path13" d="M670.833,587.5l866.667,0l158.333,100l0,1025c0,20.833 -12.5,33.333 -33.333,33.333l-991.667,0c-20.833,0 -33.333,-12.5 -33.333,-33.333l0,-1091.667c0,-20.833 12.5,-33.333 33.333,-33.333Z" style="fill:#6f7bce;"/><path id="prefix__path15" d="M670.833,587.5l866.667,0l158.333,100l0,8.333l-154.167,-95.833l-870.833,0c-16.667,0 -29.167,12.5 -29.167,29.167l0,1095.833c-4.167,-4.167 -4.167,-8.333 -4.167,-12.5l0,-1091.667c0,-20.833 12.5,-33.333 33.333,-33.333Z" style="fill:#9ea8ec;"/><rect id="prefix__polygon17" x="979.167" y="591.667" width="470.833" height="408.333" style="fill:#dbdff9;"/><path id="prefix__path19" d="M770.833,1220.833l787.5,0c12.5,0 20.833,8.333 20.833,16.667l0,483.333l-829.167,0l0,-483.333c0,-8.333 8.333,-16.667 20.833,-16.667Z" style="fill:#dbdff9;"/><rect id="prefix__polygon21" x="750" y="1666.667" width="829.167" height="54.167" style="fill:#4f60ca;"/><path id="prefix__path23" d="M1291.667,650l41.667,0c12.5,0 25,8.333 25,20.833l0,166.667c0,12.5 -12.5,25 -25,25l-41.667,0c-12.5,0 -25,-12.5 -25,-25l0,-166.667c0,-12.5 12.5,-20.833 25,-20.833Z" style="fill:#4f60ca;"/><path id="prefix__path25" d="M766.667,650c41.667,0 70.833,29.167 70.833,70.833c0,37.5 -29.167,66.667 -70.833,66.667c-37.5,0 -70.833,-29.167 -70.833,-66.667c0,-41.667 33.333,-70.833 70.833,-70.833Z" style="fill:#c0cbfd;"/><path id="prefix__path27" d="M820.833,1558.333l687.5,0c8.333,0 12.5,4.167 12.5,12.5c0,4.167 -4.167,12.5 -12.5,12.5l-687.5,0c-8.333,0 -12.5,-8.333 -12.5,-12.5c0,-8.333 4.167,-12.5 12.5,-12.5Z" style="fill:#4f60ca;"/><path id="prefix__path29" d="M820.833,1437.5l687.5,0c8.333,0 12.5,4.167 12.5,12.5c0,4.167 -4.167,8.333 -12.5,8.333l-687.5,0c-8.333,0 -12.5,-4.167 -12.5,-8.333c0,-8.333 4.167,-12.5 12.5,-12.5Z" style="fill:#4f60ca;"/><path id="prefix__path31" d="M820.833,1295.833l687.5,0c8.333,0 12.5,8.333 12.5,12.5c0,8.333 -4.167,12.5 -12.5,12.5l-687.5,0c-8.333,0 -12.5,-4.167 -12.5,-12.5c0,-4.167 4.167,-12.5 12.5,-12.5Z" style="fill:#4f60ca;"/><path id="prefix__path33" d="M691.667,1675c12.5,0 20.833,8.333 20.833,20.833c0,8.333 -8.333,16.667 -20.833,16.667c-12.5,0 -20.833,-8.333 -20.833,-16.667c0,-12.5 8.333,-20.833 20.833,-20.833Z" style="fill:#c0cbfd;"/><path id="prefix__path35" d="M1637.5,1675c12.5,0 20.833,8.333 20.833,20.833c0,8.333 -8.333,16.667 -20.833,16.667c-12.5,0 -20.833,-8.333 -20.833,-16.667c0,-12.5 8.333,-20.833 20.833,-20.833Z" style="fill:#c0cbfd;"/><rect id="prefix__polygon37" x="891.667" y="591.667" width="87.5" height="408.333" style="fill:#4f60ca;"/><path id="prefix__path39" d="M1695.833,1704.167l0,8.333c0,20.833 -12.5,33.333 -33.333,33.333l-991.667,0c-20.833,0 -33.333,-12.5 -33.333,-33.333l0,-8.333c0,16.667 12.5,33.333 33.333,33.333l991.667,0c20.833,0 33.333,-16.667 33.333,-33.333Z" style="fill:#4f60ca;"/><path id="prefix__path41" d="M1166.667,0c645.833,0 1166.667,520.833 1166.667,1166.667c0,645.833 -520.833,1166.667 -1166.667,1166.667c-645.833,0 -1166.667,-520.833 -1166.667,-1166.667c0,-645.833 520.833,-1166.667 1166.667,-1166.667Zm0,191.667c537.5,0 975,437.5 975,975c0,537.5 -437.5,975 -975,975c-537.5,0 -975,-437.5 -975,-975c-0,-537.5 437.5,-975 975,-975Z" style="fill:#5e6ad2;"/></g></svg>